<svg xmlns="http://www.w3.org/2000/svg" xmlns:xlink="http://www.w3.org/1999/xlink" viewBox="0 0 3279.03 3797.51"><defs><style>.cls-1{fill:#d1d3d4;}.cls-2{fill:#f1f2f2;}.cls-3{fill:#39b54a;}.cls-4{fill:#fff;}</style></defs><g id="Layer_2" data-name="Layer 2"><g id="Layer_1-2" data-name="Layer 1"><circle class="cls-1" cx="2430.8" cy="3344.51" r="56.16"/><circle class="cls-1" cx="1091.58" cy="3647.02" r="66.01"/><rect class="cls-2" x="1657.52" y="765.47" width="1563.84" height="2427.84"/><rect class="cls-2" width="2202.1" height="3797.51" rx="193.96"/><rect class="cls-1" x="755.46" y="182.62" width="691.17" height="66.41"/><image width="3264" height="4928" transform="translate(67.71 349.8) scale(0.63 0.64)" xlink:href="../../../../../../Users/fiberx/Pictures/divine-effiong-k3Srj786qtk-unsplash.jpg"/><rect class="cls-2" x="1615.41" y="399.11" width="1663.63" height="3031.8" rx="150.63"/><rect class="cls-1" x="2186.14" y="544.91" width="522.16" height="53.02"/><rect class="cls-3" x="1653.2" y="704.99" width="1555.2" height="2488.32"/><path class="cls-4" d="M2517.54,1624.25c-.55,10.2-1,19.34-1.66,31.28l-30-37.51c-8.51-10.54-17-20.85-25.11-31.69-2.13-2.94-3.74-8.58-2-11,17.71-23.33,36.18-46.24,56.91-68.83.59,9,1.15,18,1.66,25.79h134.15c-4.25,6.34-9,13.67-13.83,21-12.3,18.42-25,36.84-36.77,55.89-6.64,10.65-15.67,15.59-29.8,15.07C2553.76,1623.73,2536.22,1624.25,2517.54,1624.25Zm-82.61-334.64c17.28,25,33.75,50.37,51.07,75.38,4,5.83,2,8.48-4.26,11.06-7.57,3.35-14.72,7.37-23.83,12.16,34.3,2.43,66.1,4.9,97.89,6.7a17,17,0,0,0,12.77-4.68c14.51-25,28.26-50.81,43.67-79l-32.48,15.58c-10.17-15.07-19.19-30.17-30.26-44a31,31,0,0,0-20-10.5c-36.73-1-73.59-.48-111.52-.48A158.24,158.24,0,0,1,2434.93,1289.61Zm-92.49,184.82,32.82,15.51c-15.58-28.3-29.41-53.87-43.89-79.15a14,14,0,0,0-10.34-4.45c-18,.66-35.92,2-53.84,3.24-14.26,1-28.51,2.36-45.67,3.68l31.2,16.25c-9.75,14.74-18.77,28.45-28,42.12-5.49,8-6.89,15.81-1.1,24.35,18.47,27.12,36.6,54.39,54.73,81.4C2294.13,1540.2,2321.07,1508.92,2342.44,1474.43Zm94.23-144.74a11.25,11.25,0,0,0,.47-10.28,172.8,172.8,0,0,0-16.6-24.2c-19.11-23.4-58.44-26.42-76.06-4.46-17,21.15-30.47,44.21-46,67.5l90,44.92C2405.18,1377.82,2421.09,1353.87,2436.67,1329.69Zm99.94,112.9c17.23,25.5,33.66,50,50.43,74.36a11.14,11.14,0,0,0,7.79,3.69,315.56,315.56,0,0,0,37.16-.48c31.66-3.25,51.92-32.32,38.3-56.08-12.77-22.11-28.34-43.3-43.58-66.33Zm-112.49,99.12c0-2.1-6-5.82-9.33-5.86q-43.27-.72-86.48,0a15.9,15.9,0,0,0-11.07,4.06c-7.44,11.75-15.79,23.54-20,36.25-7,21.52,11.62,46.14,36.69,47.68,29.41,1.77,59.08.41,90.57.41,0-28.48.21-55.49-.42-82.46Z"/><path class="cls-4" d="M2126.13,2175.55v-276.8h54.92c55.87,0,76.36,57.83,76.36,139.16,0,79.73-20.49,137.58-76.36,137.58ZM2182,1973.1h-3.14v128.2H2182c14,0,22.64-24.22,22.64-63.33,0-41-8.68-64.87-22.64-64.87Z"/><path class="cls-4" d="M2296.17,2067.69V1898.75h52.76v161.42c0,26.17,1.92,40.65,10.84,40.65s11.08-14.48,11.08-40.65V1898.75h52v168.76c0,65.67-19.27,115.68-64.07,115.68S2296.17,2133.36,2296.17,2067.69Z"/><path class="cls-4" d="M2539.93,2175.55h-51.54l-31.57-276.8h53.28l11.55,161.81h1.22l12.25-161.81h47l13.25,161.81h.73l11.31-161.81h50.83l-32,276.71h-51.54l-17.1-154h-.73Z"/><path class="cls-4" d="M2695.77,1898.75h91.05v74.64h-41.2v27.75H2783v69.33h-37.35v29.32h44.32v75.82h-94.17Z"/></g></g></svg>